<svg id="Layer_1" enable-background="new 0 0 512.018 512.018" height="512" viewBox="0 0 512.018 512.018" width="512" xmlns="http://www.w3.org/2000/svg"><g><path d="m343.845 223.885c0-48.431-39.402-87.833-87.833-87.833-116.362 4.416-116.331 171.268.001 175.666 48.43 0 87.832-39.402 87.832-87.833z"/><path d="m256.012 311.718c-87.082 0-157.927 70.846-157.927 157.927 0 23.979 19.563 42.374 42.374 42.374h231.106c22.818 0 42.374-18.4 42.374-42.374 0-87.081-70.845-157.927-157.927-157.927z"/><path d="m256.012 64.285c-113.531-1.76-193.626 121.773-145.763 224.622 3.375 7.564 12.244 10.959 19.808 7.585 7.565-3.376 10.962-12.245 7.586-19.811-38.842-83.515 26.166-183.831 118.371-182.395 92.188-1.432 157.226 98.883 118.366 182.396-3.374 7.564.022 16.433 7.588 19.809 10.304 4.597 17.884-3.269 19.811-7.586 47.839-102.85-32.22-226.386-145.767-224.62z"/><path d="m256.012.018c-170.658-2.169-281.434 191.874-192.854 337.53 4.215 7.13 13.418 9.489 20.544 5.271 7.131-4.218 9.491-13.417 5.273-20.547-76.65-126.121 19.258-294.149 167.04-292.252 147.761-1.886 243.705 166.133 167.032 292.253-4.215 7.129-1.855 16.328 5.276 20.546 8.167 4.832 17.011.704 20.547-5.273 88.553-145.657-22.182-339.709-192.858-337.528z"/></g></svg>