<svg id="bold" enable-background="new 0 0 24 24" height="512" viewBox="0 0 24 24" width="512" xmlns="http://www.w3.org/2000/svg"><path d="m21.5 5.02v3.23c0 1.79-1.46 3.25-3.25 3.25h-8.25v1.76c0 1.52 1.23 2.75 2.75 2.75h1.25v2.25c0 .3.18.57.45.69.1.04.2.06.3.06.19 0 .37-.07.51-.2l3.03-2.8h2.96c1.52 0 2.75-1.23 2.75-2.75v-5.5c0-1.44-1.1-2.61-2.5-2.74z"/><circle cx="5.5" cy="14.5" r="3"/><path d="m8.25 19h-5.5c-1.517 0-2.75 1.233-2.75 2.75v1.5c0 .414.336.75.75.75h9.5c.414 0 .75-.336.75-.75v-1.5c0-1.517-1.233-2.75-2.75-2.75z"/><path d="m20 3v5.25c0 .96-.79 1.75-1.75 1.75h-10.5c-.96 0-1.75-.79-1.75-1.75v-5.25c0-.09.01-.18.03-.27l6.46 3.82c.31.18.71.18 1.02 0l6.46-3.82c.02.09.03.18.03.27z"/><path d="m19.97 1.48-6.46 3.82c-.31.18-.71.18-1.02 0l-6.46-3.82c.12-.84.85-1.48 1.72-1.48h10.5c.87 0 1.6.64 1.72 1.48z"/></svg>