<svg id="Capa_1" enable-background="new 0 0 512 512" height="512" viewBox="0 0 512 512" width="512" xmlns="http://www.w3.org/2000/svg"><g><path d="m446.128 124.892c3.212-9.623 4.872-19.718 4.872-29.892 0-52.383-42.617-95-95-95-29.914 0-57.67 13.993-75.479 37.317-10.801-4.814-22.512-7.317-34.521-7.317-22.845 0-44.166 8.953-60.029 24.9-9.675-3.255-19.715-4.9-29.971-4.9-23.825 0-46.609 8.862-64.157 24.955-14.89 13.656-24.94 31.507-28.908 51.057-36.927 13.657-61.935 48.918-61.935 88.988 0 52.383 42.617 95 95 95h65.052c-.031-.997-.052-1.996-.052-3v-29.705c-14.802-7.377-25-22.664-25-40.295 0-24.813 20.187-45 45-45h20v-25c0-8.284 6.716-15 15-15s15 6.716 15 15v25h50v-25c0-8.284 6.716-15 15-15s15 6.716 15 15v25h20c24.813 0 45 20.187 45 45 0 17.632-10.198 32.918-25 40.295v29.705c0 1.004-.021 2.003-.052 3h65.052c52.383 0 95-42.617 95-95 0-41.646-26.793-77.461-64.872-90.108z"/><path d="m221 385.318v1.682c0 13.961 8.176 26.01 20 31.627v28.373c0 19.299-15.701 35-35 35s-35-15.701-35-35c0-35.841-29.159-65-65-65h-90c-8.284 0-15 6.716-15 15s6.716 15 15 15h90c19.299 0 35 15.701 35 35 0 35.841 29.159 65 65 65s65-29.159 65-65v-28.373c11.824-5.618 20-17.666 20-31.627v-1.682c-10.837 4.31-22.646 6.682-35 6.682s-24.163-2.373-35-6.682z"/><path d="m331 222h-150c-8.284 0-15 6.716-15 15s6.716 15 15 15h10v45c0 35.898 29.102 65 65 65s65-29.102 65-65v-45h10c8.284 0 15-6.716 15-15s-6.716-15-15-15zm-75 90c-8.284 0-15-6.716-15-15s6.716-15 15-15 15 6.716 15 15-6.716 15-15 15z"/></g></svg>