<svg height="512pt" viewBox="0 0 512 512" width="512pt" xmlns="http://www.w3.org/2000/svg"><path d="m145 372c57.898438 0 105-47.101562 105-105s-47.101562-105-105-105-105 47.101562-105 105 47.101562 105 105 105zm0 0"/><path d="m243.136719 359.605469c-24.632813 26.085937-59.515625 42.394531-98.136719 42.394531s-73.503906-16.308594-98.136719-42.394531c-28.226562 18.84375-46.863281 50.980469-46.863281 87.394531v65h290v-65c0-36.414062-18.636719-68.550781-46.863281-87.394531zm0 0"/><path d="m122 0v133.96875c7.476562-1.289062 15.160156-1.96875 23-1.96875 65.195312 0 119.742188 46.453125 132.285156 108h39.714844v99.945312l120.414062-99.945312h74.585938v-240zm0 0"/></svg>