<?xml version="1.0" encoding="iso-8859-1"?>
<!-- Generator: Adobe Illustrator 19.0.0, SVG Export Plug-In . SVG Version: 6.00 Build 0)  -->
<svg version="1.1" id="Capa_1" xmlns="http://www.w3.org/2000/svg" xmlns:xlink="http://www.w3.org/1999/xlink" x="0px" y="0px"
	 viewBox="0 0 512 512" style="enable-background:new 0 0 512 512;" xml:space="preserve">
<g>
	<g>
		<polygon points="360,137.5 360,220 451,220 451,250 360,250 360,297.5 451,297.5 451,327.5 360,327.5 360,375 451,375 451,405 
			360,405 360,512 512,512 512,137.5 		"/>
	</g>
</g>
<g>
	<g>
		<path d="M251.87,0H78.13L0,90.59V512c25.82-0.24,57.1-0.37,90-0.42V381.5h60v130.05c10.1,0,20.13,0.01,30,0.02V381.5h60v130.19
			c48.97,0.13,85.33,0.3,90,0.31V90.59L251.87,0z M255,327.5H75v-30h180V327.5z M255,247.5H75v-30h180V247.5z M255,167.5H75v-30h180
			V167.5z"/>
	</g>
</g>
<g>
</g>
<g>
</g>
<g>
</g>
<g>
</g>
<g>
</g>
<g>
</g>
<g>
</g>
<g>
</g>
<g>
</g>
<g>
</g>
<g>
</g>
<g>
</g>
<g>
</g>
<g>
</g>
<g>
</g>
</svg>
