<svg id="Capa_1" enable-background="new 0 0 512 512" height="512" viewBox="0 0 512 512" width="512" xmlns="http://www.w3.org/2000/svg"><g><path d="m181.754 60.697c19.796-19.796 46.163-30.697 74.246-30.697s54.45 10.901 74.246 30.697c2.929 2.93 6.768 4.394 10.606 4.394s7.678-1.465 10.606-4.394c5.858-5.857 5.858-15.355 0-21.213-25.46-25.462-59.361-39.484-95.458-39.484s-69.998 14.022-95.459 39.484c-5.858 5.857-5.858 15.355 0 21.213 5.857 5.858 15.355 5.858 21.213 0z"/><path d="m298.427 107.517c3.839 0 7.678-1.465 10.606-4.394 5.858-5.857 5.858-15.355 0-21.213-29.242-29.242-76.824-29.242-106.066 0-5.858 5.857-5.858 15.355 0 21.213 5.857 5.857 15.355 5.857 21.213 0 17.547-17.545 46.094-17.545 63.641 0 2.928 2.929 6.767 4.394 10.606 4.394z"/><circle cx="256" cy="134.943" r="15"/><path d="m496 242h-90v270h90c8.284 0 15-6.716 15-15v-240c0-8.284-6.716-15-15-15zm-37.5 210c-8.284 0-15-6.716-15-15s6.716-15 15-15 15 6.716 15 15-6.716 15-15 15zm0-60c-8.284 0-15-6.716-15-15s6.716-15 15-15 15 6.716 15 15-6.716 15-15 15zm0-60c-8.284 0-15-6.716-15-15s6.716-15 15-15 15 6.716 15 15-6.716 15-15 15z"/><path d="m361 172h-210c-8.284 0-15 6.716-15 15v325h45v-85c0-8.284 6.716-15 15-15h120c8.284 0 15 6.716 15 15v85h45v-325c0-8.284-6.716-15-15-15zm-165 210c-8.284 0-15-6.716-15-15s6.716-15 15-15 15 6.716 15 15-6.716 15-15 15zm0-60c-8.284 0-15-6.716-15-15s6.716-15 15-15 15 6.716 15 15-6.716 15-15 15zm0-60c-8.284 0-15-6.716-15-15s6.716-15 15-15 15 6.716 15 15-6.716 15-15 15zm60 120c-8.284 0-15-6.716-15-15s6.716-15 15-15 15 6.716 15 15-6.716 15-15 15zm0-60c-8.284 0-15-6.716-15-15s6.716-15 15-15 15 6.716 15 15-6.716 15-15 15zm0-60c-8.284 0-15-6.716-15-15s6.716-15 15-15 15 6.716 15 15-6.716 15-15 15zm60 120c-8.284 0-15-6.716-15-15s6.716-15 15-15 15 6.716 15 15-6.716 15-15 15zm0-60c-8.284 0-15-6.716-15-15s6.716-15 15-15 15 6.716 15 15-6.716 15-15 15zm0-60c-8.284 0-15-6.716-15-15s6.716-15 15-15 15 6.716 15 15-6.716 15-15 15z"/><path d="m211 442h30v70h-30z"/><path d="m271 442h30v70h-30z"/><path d="m1 257v240c0 8.284 6.716 15 15 15h90v-270h-90c-8.284 0-15 6.716-15 15zm52.5 45c8.284 0 15 6.716 15 15s-6.716 15-15 15-15-6.716-15-15 6.716-15 15-15zm0 60c8.284 0 15 6.716 15 15s-6.716 15-15 15-15-6.716-15-15 6.716-15 15-15zm0 60c8.284 0 15 6.716 15 15s-6.716 15-15 15-15-6.716-15-15 6.716-15 15-15z"/></g></svg>