<svg id="bold" enable-background="new 0 0 24 24" height="512" viewBox="0 0 24 24" width="512" xmlns="http://www.w3.org/2000/svg"><path d="m.492 12.002c-.273.005-.492.227-.492.5v9.248c0 .138.112.25.25.25h2.372c.224 0 .42-.148.481-.363l2.213-7.798c.143-.504-.127-1.034-.62-1.213-.906-.33-2.296-.656-4.204-.624z"/><path d="m22 17.5c-2 0-6 2.531-8 2.531s-4.25-1.531-4.25-1.531 2.694.5 4.25.5 2-.531 2-1.25c0-1.75-2.972-2.022-4.476-2.251-1.476-.822-2.243-1.472-4.688-1.679-.04.392-1.978 7.126-2.086 7.505 2.276 1.036 6.194 2.675 8.25 2.675 3 0 11-4 11-5s-1-1.5-2-1.5z"/><path d="m21.75 10.5h-.75v-8.75c0-.481-.447-.839-.916-.731l-5.5 1.25c-.342.077-.584.381-.584.731v1.5h2.25c.414 0 .75.336.75.75s-.336.75-.75.75h-2.25v1.5h2.25c.414 0 .75.336.75.75s-.336.75-.75.75h-2.25v1.5h-.75c-.414 0-.75.336-.75.75s.336.75.75.75h8.5c.414 0 .75-.336.75-.75s-.336-.75-.75-.75z"/></svg>