<svg id="bold" enable-background="new 0 0 32 32" height="512" viewBox="0 0 32 32" width="512" xmlns="http://www.w3.org/2000/svg"><path d="m26 32h-20c-3.314 0-6-2.686-6-6v-20c0-3.314 2.686-6 6-6h20c3.314 0 6 2.686 6 6v20c0 3.314-2.686 6-6 6z" fill="#ffe6e2"/><g fill="#fd907e"><path d="m24 9.333v10c0 .733-.6 1.333-1.333 1.333h-3.04c-.24-1.693-1.693-3-3.46-3h-.167v-.353c.427-.38.767-.847 1-1.38v1.733h6v-7.833c0-.46-.373-.833-.833-.833h-4.333c-.461 0-.834.373-.834.833v2.92c-.227-.533-.573-1.007-1-1.387v-2.033c0-.733.6-1.333 1.333-1.333h5.333c.734 0 1.334.6 1.334 1.333z"/><path d="m20 13.333c-.551 0-1-.449-1-1s.449-1 1-1 1 .449 1 1c0 .552-.449 1-1 1z"/><path d="m21.5 16h-3c-.276 0-.5-.224-.5-.5 0-.827.673-1.5 1.5-1.5h1c.827 0 1.5.673 1.5 1.5 0 .276-.224.5-.5.5z"/></g><path d="m18.167 24h-9.667c-.276 0-.5-.224-.5-.5v-2.333c0-1.379 1.121-2.5 2.5-2.5h5.667c1.379 0 2.5 1.121 2.5 2.5v2.333c0 .276-.224.5-.5.5z" fill="#fc573b"/><path d="m10.4 13.733c0-.013 0-.033.007-.047.293-1.347 1.493-2.353 2.927-2.353 1.44 0 2.647 1.02 2.933 2.373 0 .007.007.02.007.027-.007 0-.02.007-.027.007-1.12.3-1.847-.92-1.873-.973-.053-.087-.14-.147-.24-.16s-.2.013-.28.087c-1.414 1.313-3.301 1.059-3.454 1.039z" fill="#fc573b"/><path d="m15.88 14.453c-.9 0-1.54-.627-1.86-1.027-1.52 1.193-3.313 1.02-3.68.973-.007.1 0 .193.013.287.18 1.487 1.447 2.647 2.98 2.647 1.54 0 2.813-1.167 2.98-2.667.013-.087.02-.173.013-.267-.153.041-.299.054-.446.054z" fill="#fc573b"/></svg>